<?xml version="1.0" encoding="utf-8"?>
<!-- Generator: Adobe Illustrator 15.0.2, SVG Export Plug-In . SVG Version: 6.00 Build 0)  -->
<!DOCTYPE svg PUBLIC "-//W3C//DTD SVG 1.1//EN" "http://www.w3.org/Graphics/SVG/1.1/DTD/svg11.dtd">
<svg version="1.1" id="Слой_1" xmlns="http://www.w3.org/2000/svg" xmlns:xlink="http://www.w3.org/1999/xlink" x="0px" y="0px"
	 width="96px" height="96px" viewBox="0 0 96 96" enable-background="new 0 0 96 96" xml:space="preserve">
<g>
	<path fill-opacity="0.4" d="M88,49c0,29.633-10.363,40-40,40C18.365,89,8,78.632,8,49C8,19.365,18.365,9,48,9
		C77.637,9,88,19.365,88,49z"/>
	
		<linearGradient id="SVGID_1_" gradientUnits="userSpaceOnUse" x1="484" y1="703.5449" x2="484" y2="784.2393" gradientTransform="matrix(1 0 0 1 -436 -695)">
		<stop  offset="0" style="stop-color:#00BACC"/>
		<stop  offset="0.2312" style="stop-color:#01A1BB"/>
		<stop  offset="0.747" style="stop-color:#026D98"/>
		<stop  offset="1" style="stop-color:#02598B"/>
	</linearGradient>
	<path fill="url(#SVGID_1_)" d="M88,48c0,29.632-10.363,40-40,40C18.365,88,8,77.632,8,48C8,18.365,18.365,8,48,8
		C77.637,8,88,18.365,88,48z"/>
	<rect fill="none" width="96" height="96"/>
	
		<linearGradient id="SVGID_2_" gradientUnits="userSpaceOnUse" x1="484" y1="703.2529" x2="484" y2="782.4976" gradientTransform="matrix(1 0 0 1 -436 -695)">
		<stop  offset="0" style="stop-color:#FFFFFF"/>
		<stop  offset="1" style="stop-color:#FFFFFF;stop-opacity:0"/>
	</linearGradient>
	<path fill="url(#SVGID_2_)" fill-opacity="0.25" d="M48,8C18.382,8,8.023,18.365,8.023,48c0,29.632,10.359,40,39.977,40
		c29.619,0,39.977-10.367,39.977-40C87.977,18.365,77.619,8,48,8z M48,87C18.859,87,9.023,77.158,9.023,48S18.859,9,48,9
		c29.141,0,38.979,9.842,38.979,39C86.977,77.158,77.141,87,48,87z"/>
	<g id="Layer_x0020_1">
		<g id="_55914264">
			
				<linearGradient id="_54887904_1_" gradientUnits="userSpaceOnUse" x1="75.3535" y1="12.9771" x2="61.1914" y2="12.977" gradientTransform="matrix(2.8346 0 0 -2.8346 -145.5311 84.7831)">
				<stop  offset="0" style="stop-color:#143246"/>
				<stop  offset="0.349" style="stop-color:#8196A3"/>
				<stop  offset="1" style="stop-color:#EDFAFF"/>
			</linearGradient>
			<polygon id="_54887904" fill="url(#_54887904_1_)" points="68.072,34.729 67.084,66.349 63.142,69.26 28.947,56.503 
				27.928,26.74 			"/>
			
				<linearGradient id="_54887832_1_" gradientUnits="userSpaceOnUse" x1="61.4746" y1="13.2207" x2="73.8408" y2="13.2207" gradientTransform="matrix(2.8346 0 0 -2.8346 -145.5311 84.7831)">
				<stop  offset="0" style="stop-color:#567286"/>
				<stop  offset="1" style="stop-color:#9AB6C3"/>
			</linearGradient>
			<polygon id="_54887832" fill="url(#_54887832_1_)" points="63.195,66.501 30.412,55.174 28.727,28.115 63.781,36.775 			"/>
			<polygon id="_54887760" fill="#143246" points="48.578,49.865 63.195,66.501 50.576,48.314 63.756,38.081 63.781,36.775 
				28.92,28.163 39.916,47.882 30.412,55.174 40.764,49.401 43.306,53.96 			"/>
			
				<linearGradient id="_54887688_1_" gradientUnits="userSpaceOnUse" x1="73.8398" y1="16.0078" x2="61.542" y2="16.0078" gradientTransform="matrix(2.8346 0 0 -2.8346 -145.5311 84.7831)">
				<stop  offset="0" style="stop-color:#62818D"/>
				<stop  offset="1" style="stop-color:#FFFFFF"/>
			</linearGradient>
			<polygon id="_54887688" fill="url(#_54887688_1_)" points="63.781,36.775 42.514,50.655 28.92,28.163 			"/>
			<path id="_54887616" fill="#770000" d="M63.072,53.043c0,0,0,5.371,0,6.456s-0.852,3.834-5.507,3.69
				c-4.655-0.143,2.507-8.804,2.507-8.804L63.072,53.043z"/>
			<path id="_54887544" fill="#FF7928" d="M48.161,53.644l11.912,0.742c0,0,0.085,4.399,0.085,5.913s-1.171,3.057-3.57,2.942
				s-3.885-0.2-5.027-0.286c-1.143-0.085-3.37-1.542-3.399-4.37C48.133,55.757,48.161,53.644,48.161,53.644L48.161,53.644z"/>
			<polygon id="_54801424" fill="#D6D6D6" points="48.161,53.644 51.732,52.187 63.072,53.043 60.073,54.386 			"/>
			<path id="_54801352" fill="#151515" d="M54.146,55.101c0.844,0,1.528,0.723,1.528,1.613c0,0.625-0.336,1.167-0.828,1.435v2.607
				h-1.399v-2.607c-0.492-0.268-0.829-0.81-0.829-1.435C52.617,55.823,53.302,55.101,54.146,55.101z"/>
			<path id="_54801280" fill="#770000" d="M52.778,52.533c0.014,0.578-0.444,1.058-1.021,1.071c-0.578,0.013-1.057-0.444-1.07-1.022
				l-0.068-2.69c-0.001-0.07-0.001-0.132,0.002-0.183c0.048-0.918,0.59-1.679,1.49-2.196c0.731-0.421,1.726-0.68,2.87-0.709
				c0.232-0.005,0.463-0.003,0.688,0.009c1.063,0.056,2.083,0.479,2.848,1.085c0.847,0.67,1.409,1.587,1.446,2.537l0.099,2.572
				c0.021,0.577-0.431,1.063-1.009,1.083c-0.577,0.021-1.063-0.432-1.083-1.01l-0.1-2.571c-0.012-0.312-0.266-0.667-0.649-0.971
				c-0.447-0.354-1.041-0.601-1.658-0.633c-0.192-0.011-0.37-0.013-0.533-0.009c-0.789,0.02-1.438,0.177-1.877,0.43
				c-0.271,0.156-0.432,0.327-0.44,0.489l-0.001,0.027L52.778,52.533z"/>
			
				<linearGradient id="_54801208_1_" gradientUnits="userSpaceOnUse" x1="72.4072" y1="12.1245" x2="69.0752" y2="12.1245" gradientTransform="matrix(2.8346 0 0 -2.8346 -145.5311 84.7831)">
				<stop  offset="0" style="stop-color:#FF5800"/>
				<stop  offset="1" style="stop-color:#D6D6D6"/>
			</linearGradient>
			<path id="_54801208" fill="url(#_54801208_1_)" d="M52.436,52.505c0.014,0.577-0.444,1.057-1.021,1.07
				c-0.578,0.014-1.058-0.443-1.07-1.021l-0.068-2.69c-0.001-0.07-0.001-0.132,0.002-0.183c0.048-0.918,0.59-1.679,1.49-2.196
				c0.731-0.421,1.726-0.681,2.87-0.709c0.232-0.006,0.463-0.003,0.689,0.009c1.063,0.056,2.082,0.479,2.847,1.084
				c0.846,0.67,1.409,1.588,1.446,2.537l0.1,2.572c0.02,0.578-0.432,1.063-1.01,1.083c-0.577,0.021-1.063-0.431-1.083-1.009
				l-0.1-2.572c-0.012-0.311-0.266-0.666-0.649-0.971c-0.447-0.353-1.041-0.601-1.658-0.633c-0.192-0.01-0.37-0.013-0.533-0.008
				c-0.789,0.02-1.438,0.177-1.877,0.43c-0.271,0.155-0.432,0.327-0.44,0.489l-0.001,0.027L52.436,52.505z"/>
		</g>
	</g>
</g>
</svg>
